<svg xmlns="http://www.w3.org/2000/svg" width="1344" height="1024" viewBox="0 0 1344 1024"><path d="M1264 448H80c-4.928 0-9.6 2.272-12.64 6.144s-4.096 8.928-2.912 13.728L192.64 980.416C195.712 991.2 205.152 1024 240 1024h864c34.976 0 44.32-32.832 47.52-44.128l128-512c1.184-4.768.128-9.856-2.912-13.728-3.008-3.872-7.68-6.144-12.608-6.144zm-143.36 523.616C1114.816 992 1108.8 992 1104 992H240c-4.768 0-10.752 0-16.48-19.872L100.512 480H1243.52l-122.88 491.616zM592 896c8.832 0 16-7.168 16-16V592c0-8.832-7.168-16-16-16s-16 7.168-16 16v288c0 8.832 7.168 16 16 16zm-224.032 0c.608 0 1.184-.032 1.824-.096 8.768-.992 15.104-8.896 14.112-17.664l-32-288c-.96-8.8-8.64-15.008-17.696-14.144-8.768.992-15.104 8.896-14.112 17.664l32 288c.896 8.192 7.84 14.24 15.872 14.24zM784 896c8.832 0 16-7.168 16-16V592c0-8.832-7.168-16-16-16s-16 7.168-16 16v288c0 8.832 7.168 16 16 16zm190.208-.096c.64.064 1.216.096 1.824.096 8.032 0 14.976-6.048 15.872-14.24l32-288c.96-8.768-5.344-16.672-14.112-17.664-9.184-.896-16.704 5.344-17.696 14.144l-32 288c-.96 8.768 5.344 16.672 14.112 17.664zM1104 384c3.712 0 7.424-1.28 10.464-3.904 6.688-5.792 7.392-15.872 1.632-22.56l-304-352c-5.792-6.72-15.872-7.392-22.56-1.664-6.688 5.792-7.392 15.872-1.632 22.56l304 352A15.913 15.913 0 0 0 1104 384zM570.112 3.616c-6.816-5.536-16.896-4.608-22.496 2.272l-288 352c-5.6 6.816-4.608 16.896 2.24 22.528A16.172 16.172 0 0 0 272 384c4.64 0 9.216-1.984 12.384-5.888l288-352c5.6-6.816 4.576-16.896-2.272-22.496zM1328 320h-128c-8.832 0-16 7.168-16 16s7.168 16 16 16h128c8.832 0 16-7.168 16-16s-7.168-16-16-16zm-896 32h512c8.832 0 16-7.168 16-16s-7.168-16-16-16H432c-8.832 0-16 7.168-16 16s7.168 16 16 16zm-416 0h160c8.832 0 16-7.168 16-16s-7.168-16-16-16H16c-8.832 0-16 7.168-16 16s7.168 16 16 16z"/></svg>