<svg xmlns="http://www.w3.org/2000/svg" viewBox="0 0 51.037 51.037" width="64" height="64"><path d="M50.908 34.914L38.895 13.601a.996.996 0 0 0-.425-.403l-6.788-3.389a.99.99 0 0 0-.603-.085c-1.197-2.678-3.257-4.876-6.646-4.876-3.87 0-6.263 1.855-7.679 4.152a9.806 9.806 0 0 0-2.133-.24c-5.41 0-9.813 4.402-9.813 9.812a9.76 9.76 0 0 0 2.337 6.34L.311 40.572c-.851 1.951.102 4.256 2.125 5.137l.304.133a4.036 4.036 0 0 0 3.022.106 3.775 3.775 0 0 0 2.188-2.041L9 41.501l-.329-.178a1 1 0 1 1 .947-1.761l.185.1 1.256-2.879-.458-.246a1 1 0 0 1 .947-1.761l.314.17 1.193-2.736-.099-.053a1 1 0 0 1-.407-1.354.998.998 0 0 1 1.305-.424l.872-1.998c5.361-.057 9.708-4.432 9.708-9.807 0-3.953-2.355-7.359-5.731-8.912 1.089-1.554 2.851-2.812 5.731-2.812 2.535 0 4.013 1.757 4.877 3.793l-3.575 2.016a1 1 0 0 0-.508.832l-.291 7.379a.995.995 0 0 0 .128.531l12.014 21.312a.999.999 0 0 0 1.362.38l12.088-6.812a1.005 1.005 0 0 0 .379-1.367zM6.117 43.103a1.787 1.787 0 0 1-1.041.963 2.049 2.049 0 0 1-1.537-.059l-.305-.133c-1.011-.44-1.499-1.563-1.089-2.504l6.547-15.001a9.766 9.766 0 0 0 3.938 1.809L6.117 43.103zM22.432 18.57c0 4.308-3.505 7.812-7.812 7.812-.278 0-.554-.016-.825-.045l-.34-.052a7.785 7.785 0 0 1-3.937-1.812 7.793 7.793 0 0 1-2.71-5.903c0-4.308 3.505-7.812 7.812-7.812.415 0 .82.042 1.217.104a13.204 13.204 0 0 0-.603 2.051 3.124 3.124 0 0 0-2.404 3.032c0 1.723 1.401 3.124 3.124 3.124s3.124-1.402 3.124-3.124a3.12 3.12 0 0 0-1.83-2.835c.117-.529.285-1.102.516-1.687 2.745 1.214 4.668 3.959 4.668 7.147zm-6.478-2.098a1 1 0 0 0 1-1c0-.082.009-.599.107-1.33a2.12 2.12 0 0 1 1.017 1.804c0 1.171-.953 2.124-2.124 2.124s-2.124-.953-2.124-2.124c0-.845.5-1.571 1.217-1.913-.062.514-.093 1-.093 1.438a1 1 0 0 0 1 1.001zm14.572.333a1 1 0 0 0 1 .999h.001a1 1 0 0 0 .999-1c0-.312-.014-.648-.034-.997.261.253.425.606.425.997a1.393 1.393 0 0 1-2.783 0c0-.349.134-.665.348-.909.041.547.044.892.044.91zm7.803 24.051L26.946 20.662l.258-6.538 2.748-1.55c.233.919.372 1.802.454 2.522a2.04 2.04 0 0 0-.926 1.708c0 1.128.918 2.046 2.046 2.046s2.046-.918 2.046-2.046c0-.804-.471-1.494-1.146-1.828a19.406 19.406 0 0 0-.496-2.81l5.374 2.683 11.371 20.176-10.346 5.831z" fill="#29333d"/></svg>