<svg xmlns="http://www.w3.org/2000/svg" width="256" height="256" viewBox="0 0 362.485 362.485"><path d="M187.566 224.456c8.238 0 14.939-6.713 14.939-14.97 0-8.221-6.689-14.91-14.919-14.91l-37.584-27.265-6.314 6.594 28.937 36.031.036.486c.469 7.873 7.018 14.034 14.905 14.034z" fill="#29333d"/><path d="M181.234 14.661C81.296 14.661 0 95.954 0 195.879c0 34.875 9.944 68.748 28.778 97.943l1.357 2.103h22.542l30.555-26.686-13.195-15.145-29.805 26.019-.97-1.639c-14.679-25.1-22.425-53.671-22.425-82.602 0-.841.048-1.64.141-2.679l.117-3.044 36.29-.043v-20.085H19.032l.312-1.85c4.753-28.027 16.702-54.385 34.552-76.228l1.107-1.354 25.583 25.556 14.241-14.168-25.904-25.915 1.219-1.114c26.679-24.527 59.631-39.284 95.314-42.679l1.727-.159.024 41.904h20.071V31.783l1.648.081c39.568 1.838 77.099 17.861 105.688 45.132l1.159 1.102-26.481 26.538 14.22 14.192 25.809-25.833 1.104 1.402c16.826 21.386 28.15 46.903 32.715 73.787l.312 1.843-35.681.027v20.09h37.633l.138 3.23c.054.84.108 1.663.108 2.504 0 28.816-7.681 57.243-22.206 82.241l-1.032 1.777-28.085-28.061-14.177 14.214 29.855 29.874h22.35l1.369-2.114c18.819-29.219 28.763-63.086 28.763-97.938-.002-99.917-81.306-181.21-181.253-181.21zM100.46 327.053h161.559v20.771H100.46z" fill="#29333d"/></svg>